<svg width="233" height="32" xmlns="http://www.w3.org/2000/svg">
 <g>
  <title>Layer 1</title>
  <rect fill="#000000" x="0" y="0" width="233.4384" height="32" id="svg_1" stroke="#000"/>
  <g id="svg_2">
   <path id="svg_3" d="m15.58397,25.24613l3.63,0l0,-20.85l-5.28,0c-5.31,0 -8.1,2.73 -8.1,6.75c0,3.21 1.53,5.1 4.26,7.05l-4.74,7.05l3.93,0l5.28,-7.89l-1.83,-1.23c-2.22,-1.5 -3.3,-2.67 -3.3,-5.19c0,-2.22 1.56,-3.72 4.53,-3.72l1.62,0l0,18.03zm69.99,0.3c1.65,0 2.82,-0.3 3.69,-0.93l0,-2.91c-0.9,0.63 -1.98,1.02 -3.48,1.02c-2.55,0 -3.6,-1.98 -3.6,-5.1c0,-3.27 1.29,-4.95 3.63,-4.95c1.38,0 2.73,0.48 3.45,0.93l0,-3.03c-0.75,-0.42 -2.07,-0.72 -3.84,-0.72c-4.56,0 -6.93,3.27 -6.93,7.86c0,5.04 2.31,7.83 7.08,7.83zm-22.32,-1.32l0,-2.91c-1.11,0.75 -2.97,1.41 -4.71,1.41c-2.61,0 -3.6,-1.23 -3.75,-3.75l8.61,0l0,-1.89c0,-5.25 -2.31,-7.23 -5.88,-7.23c-4.35,0 -6.42,3.33 -6.42,7.89c0,5.25 2.58,7.8 7.14,7.8c2.28,0 3.96,-0.6 5.01,-1.32zm11.4,1.02l4.05,0l-5.73,-8.01l5.04,-7.08l-3.6,0l-5.04,7.08l0,-7.08l-3.57,0l0,15.09l3.57,0l0,-7.29l5.28,7.29zm-24.42,-2.82l-1.59,0l0,-12.27l-10.41,0l0,1.29c0,3.69 -0.24,8.46 -1.5,10.98l-1.11,0l0,6.27l3.3,0l0,-3.45l8.01,0l0,3.45l3.3,0l0,-6.27zm-19.68,-12.27l0,5.97l-4.77,0l0,-5.97l-3.57,0l0,15.09l3.57,0l0,-6.3l4.77,0l0,6.3l3.57,0l0,-15.09l-3.57,0zm26.91,2.52c1.77,0 2.31,1.47 2.31,3.36l0,0.3l-4.98,0c0.09,-2.4 0.96,-3.66 2.67,-3.66zm-12.39,9.75l-5.04,0c0.99,-2.28 1.26,-6.39 1.26,-9l0,-0.45l3.78,0l0,9.45zm52.593,-18.03l0,20.85l3.63,0l0,-18.03l6.48,0l0,18.03l3.63,0l0,-20.85l-13.74,0zm20.029,5.76l-3.3,0l0,19.44l3.57,0l0,-6.12c0.9,1.35 2.22,2.07 3.75,2.07c3.48,0 5.88,-2.79 5.88,-7.86c0,-5.04 -2.34,-7.83 -5.7,-7.83c-1.68,0 -3.06,0.78 -4.02,2.25l-0.18,-1.95zm3.12,12.57c-1.89,0 -2.85,-1.53 -2.85,-5.01c0,-3.51 1.02,-5.04 3.03,-5.04c1.95,0 2.91,1.53 2.91,5.01c0,3.51 -1.02,5.04 -3.09,5.04zm20.299,-7.77c0,-3.66 -1.86,-5.04 -5.64,-5.04c-2.37,0 -4.23,0.75 -5.31,1.38l0,2.97c0.96,-0.72 3.06,-1.5 4.89,-1.5c1.71,0 2.49,0.6 2.49,2.22l0,0.84l-0.57,0c-5.46,0 -7.89,1.8 -7.89,4.86c0,3.06 1.86,4.77 4.62,4.77c2.1,0 3,-0.69 3.69,-1.41l0.15,0c0.03,0.39 0.15,0.9 0.27,1.2l3.48,0c-0.12,-1.23 -0.18,-2.46 -0.18,-3.69l0,-6.6zm-3.57,6.69c-0.45,0.66 -1.29,1.2 -2.55,1.2c-1.5,0 -2.25,-0.84 -2.25,-2.13c0,-1.71 1.23,-2.34 4.29,-2.34l0.51,0l0,3.27zm15.29,3.6l4.05,0l-5.73,-8.01l5.04,-7.08l-3.6,0l-5.04,7.08l0,-7.08l-3.57,0l0,15.09l3.57,0l0,-7.29l5.28,7.29zm16.019,-12.27l0,-2.82l-11.97,0l0,2.82l4.2,0l0,12.27l3.57,0l0,-12.27l4.2,0zm2.114,-2.82l0,15.09l3.18,0l5.46,-9.33l0,9.33l3.45,0l0,-15.09l-3.18,0l-5.46,9.33l0,-9.33l-3.45,0zm23.938,15.09l4.05,0l-5.73,-8.01l5.04,-7.08l-3.6,0l-5.04,7.08l0,-7.08l-3.57,0l0,15.09l3.57,0l0,-7.29l5.28,7.29zm7.191,4.65c3.33,0 4.56,-2.37 5.58,-5.46l4.71,-14.28l-3.45,0l-3.33,11.34l-3.33,-11.34l-3.75,0l5.19,15.75c-0.39,0.72 -0.96,1.17 -1.95,1.17c-0.66,0 -1.23,-0.21 -1.62,-0.6l0,2.91c0,0 0.54,0.51 1.95,0.51zm24.514,-4.65l3.48,0l-0.06,-15.09l-4.89,0l-3.27,10.05l-2.94,-10.05l-5.19,0l0,15.09l3.03,0l0,-11.28l3.27,11.28l2.91,0l3.66,-11.28l0,11.28z" fill="#ffffff"/>
  </g>
 </g>

</svg>